<svg width="170" height="20" viewBox="0 0 170 20" fill="none" xmlns="http://www.w3.org/2000/svg">
<g clip-path="url(#clip0_2_27)">
<path fill-rule="evenodd" clip-rule="evenodd" d="M2 0C0.895431 0 0 0.895431 0 2V18C0 19.1046 0.895429 20 2 20H23V0H2Z" fill="#874240"/>
<path fill-rule="evenodd" clip-rule="evenodd" d="M23 20H168C169.105 20 170 19.1046 170 18V2C170 0.895431 169.105 0 168 0H23V20Z" fill="#ED6A65"/>
<path d="M11.2126 15.4091L11.5 15.6111L11.7874 15.4091C14.6574 13.3928 16.0952 11.991 16.8088 10.9155C17.1715 10.3687 17.3509 9.90114 17.4339 9.47832C17.5039 9.12159 17.5014 8.80606 17.4995 8.56214C17.4992 8.52454 17.4989 8.48864 17.4989 8.45455C17.4989 7.06822 16.2461 5.5 14.2495 5.5C13.2256 5.5 12.426 5.98745 11.9031 6.44015C11.7472 6.57511 11.6125 6.70977 11.5 6.83264C11.3875 6.70977 11.2528 6.57511 11.0969 6.44015C10.574 5.98745 9.77442 5.5 8.75052 5.5C6.75393 5.5 5.50105 7.06822 5.50105 8.45455C5.50105 8.48863 5.50077 8.52454 5.50047 8.56214C5.49857 8.80606 5.4961 9.12159 5.56613 9.47832C5.64914 9.90114 5.82851 10.3687 6.19123 10.9155C6.90482 11.991 8.34258 13.3928 11.2126 15.4091Z" fill="#ED6A65" stroke="white"/>
<path d="M35.3438 8C35.2969 7.60417 35.1068 7.29688 34.7734 7.07812C34.4401 6.85937 34.0313 6.75 33.5469 6.75C33.1927 6.75 32.8828 6.80729 32.6172 6.92187C32.3542 7.03646 32.1484 7.19401 32 7.39453C31.8542 7.59505 31.7813 7.82292 31.7813 8.07812C31.7813 8.29167 31.832 8.47526 31.9336 8.62891C32.0378 8.77995 32.1706 8.90625 32.332 9.00781C32.4935 9.10677 32.6628 9.1888 32.8398 9.25391C33.0169 9.31641 33.1797 9.36719 33.3281 9.40625L34.1406 9.625C34.349 9.67969 34.5807 9.75521 34.8359 9.85156C35.0938 9.94792 35.3398 10.0794 35.5742 10.2461C35.8112 10.4102 36.0065 10.6211 36.1602 10.8789C36.3138 11.1367 36.3906 11.4531 36.3906 11.8281C36.3906 12.2604 36.2773 12.651 36.0508 13C35.8268 13.349 35.4987 13.6263 35.0664 13.832C34.6367 14.0378 34.1146 14.1406 33.5 14.1406C32.9271 14.1406 32.431 14.0482 32.0117 13.8633C31.5951 13.6784 31.2669 13.4206 31.0273 13.0898C30.7904 12.7591 30.6563 12.375 30.625 11.9375H31.625C31.651 12.2396 31.7526 12.4896 31.9297 12.6875C32.1094 12.8828 32.3359 13.0286 32.6094 13.125C32.8854 13.2187 33.1823 13.2656 33.5 13.2656C33.8698 13.2656 34.2018 13.2057 34.4961 13.0859C34.7904 12.9635 35.0234 12.7943 35.1953 12.5781C35.3672 12.3594 35.4531 12.1042 35.4531 11.8125C35.4531 11.5469 35.3789 11.3307 35.2305 11.1641C35.082 10.9974 34.8867 10.862 34.6445 10.7578C34.4023 10.6536 34.1406 10.5625 33.8594 10.4844L32.875 10.2031C32.25 10.0234 31.7552 9.76693 31.3906 9.43359C31.026 9.10026 30.8438 8.66406 30.8438 8.125C30.8438 7.67708 30.9648 7.28646 31.207 6.95312C31.4518 6.61719 31.7799 6.35677 32.1914 6.17187C32.6055 5.98437 33.0677 5.89062 33.5781 5.89062C34.0938 5.89062 34.5521 5.98307 34.9531 6.16797C35.3542 6.35026 35.6719 6.60026 35.9062 6.91797C36.1432 7.23568 36.2682 7.59635 36.2813 8H35.3438ZM41.6396 11.5469V8H42.5615V14H41.6396V12.9844H41.5771C41.4365 13.2891 41.2178 13.5482 40.9209 13.7617C40.624 13.9727 40.249 14.0781 39.7959 14.0781C39.4209 14.0781 39.0876 13.9961 38.7959 13.832C38.5042 13.6654 38.2751 13.4154 38.1084 13.082C37.9417 12.7461 37.8584 12.3229 37.8584 11.8125V8H38.7803V11.75C38.7803 12.1875 38.9027 12.5365 39.1475 12.7969C39.3949 13.0573 39.71 13.1875 40.0928 13.1875C40.3219 13.1875 40.555 13.1289 40.792 13.0117C41.0316 12.8945 41.2321 12.7148 41.3936 12.4727C41.5576 12.2305 41.6396 11.9219 41.6396 11.5469ZM44.25 16.25V8H45.1406V8.95312H45.25C45.3177 8.84896 45.4115 8.71615 45.5313 8.55469C45.6536 8.39062 45.8281 8.24479 46.0547 8.11719C46.2839 7.98698 46.5938 7.92188 46.9844 7.92188C47.4896 7.92188 47.9349 8.04818 48.3203 8.30078C48.7057 8.55339 49.0065 8.91146 49.2227 9.375C49.4388 9.83854 49.5469 10.3854 49.5469 11.0156C49.5469 11.651 49.4388 12.2018 49.2227 12.668C49.0065 13.1315 48.707 13.4909 48.3242 13.7461C47.9414 13.9987 47.5 14.125 47 14.125C46.6146 14.125 46.306 14.0612 46.0742 13.9336C45.8424 13.8034 45.6641 13.6562 45.5391 13.4922C45.4141 13.3255 45.3177 13.1875 45.25 13.0781H45.1719V16.25H44.25ZM45.1562 11C45.1562 11.4531 45.2227 11.8529 45.3555 12.1992C45.4883 12.543 45.6823 12.8125 45.9375 13.0078C46.1927 13.2005 46.5052 13.2969 46.875 13.2969C47.2604 13.2969 47.582 13.1953 47.8398 12.9922C48.1003 12.7865 48.2956 12.5104 48.4258 12.1641C48.5586 11.8151 48.625 11.4271 48.625 11C48.625 10.5781 48.5599 10.1979 48.4297 9.85937C48.3021 9.51823 48.1081 9.2487 47.8477 9.05078C47.5898 8.85026 47.2656 8.75 46.875 8.75C46.5 8.75 46.1849 8.84505 45.9297 9.03516C45.6745 9.22266 45.4818 9.48568 45.3516 9.82422C45.2214 10.1602 45.1562 10.5521 45.1562 11Z" fill="white"/>
</g>
<defs>
<clipPath id="clip0_2_27">
<rect width="170" height="20" fill="white"/>
</clipPath>
</defs>
</svg>
