<svg width="150" height="20" viewBox="0 0 150 20" fill="none" xmlns="http://www.w3.org/2000/svg">
<g clip-path="url(#clip0_2_27)">
<rect width="150" height="20" fill="white"/>
<path fill-rule="evenodd" clip-rule="evenodd" d="M2 0C0.895431 0 0 0.895431 0 2V18C0 19.1046 0.895429 20 2 20H23V0H2Z" fill="#874240"/>
<path fill-rule="evenodd" clip-rule="evenodd" d="M23 20H148C149.105 20 150 19.1046 150 18V2C150 0.895431 149.105 0 148 0H23V20Z" fill="#ED6A65"/>
<g filter="url(#filter0_d_2_27)">
<path d="M37.1367 8.19922C37.1003 7.85807 36.9466 7.59245 36.6758 7.40234C36.4076 7.21224 36.0586 7.11719 35.6289 7.11719C35.3268 7.11719 35.0677 7.16276 34.8516 7.25391C34.6354 7.34505 34.4701 7.46875 34.3555 7.625C34.2409 7.78125 34.1823 7.95964 34.1797 8.16016C34.1797 8.32682 34.2174 8.47135 34.293 8.59375C34.3711 8.71615 34.4766 8.82031 34.6094 8.90625C34.7422 8.98958 34.8893 9.0599 35.0508 9.11719C35.2122 9.17448 35.375 9.22266 35.5391 9.26172L36.2891 9.44922C36.5911 9.51953 36.8815 9.61458 37.1602 9.73437C37.4414 9.85417 37.6927 10.0052 37.9141 10.1875C38.138 10.3698 38.3151 10.5898 38.4453 10.8477C38.5755 11.1055 38.6406 11.4076 38.6406 11.7539C38.6406 12.2227 38.5208 12.6354 38.2813 12.9922C38.0417 13.3464 37.6953 13.6237 37.2422 13.8242C36.7917 14.0221 36.2461 14.1211 35.6055 14.1211C34.9831 14.1211 34.4427 14.0247 33.9844 13.832C33.5286 13.6393 33.1719 13.3581 32.9141 12.9883C32.6589 12.6185 32.5208 12.168 32.5 11.6367H33.9258C33.9466 11.9154 34.0326 12.1471 34.1836 12.332C34.3346 12.5169 34.5313 12.6549 34.7734 12.7461C35.0182 12.8372 35.2917 12.8828 35.5938 12.8828C35.9089 12.8828 36.1849 12.8359 36.4219 12.7422C36.6615 12.6458 36.849 12.513 36.9844 12.3437C37.1198 12.1719 37.1888 11.9714 37.1914 11.7422C37.1888 11.5339 37.1276 11.362 37.0078 11.2266C36.888 11.0885 36.7201 10.974 36.5039 10.8828C36.2904 10.7891 36.0404 10.7057 35.7539 10.6328L34.8438 10.3984C34.1849 10.2292 33.6641 9.97266 33.2813 9.62891C32.901 9.28255 32.7109 8.82292 32.7109 8.25C32.7109 7.77865 32.8385 7.36589 33.0938 7.01172C33.3516 6.65755 33.7018 6.38281 34.1445 6.1875C34.5872 5.98958 35.0885 5.89062 35.6484 5.89062C36.2161 5.89062 36.7135 5.98958 37.1406 6.1875C37.5703 6.38281 37.9076 6.65495 38.1523 7.00391C38.3971 7.35026 38.5234 7.7487 38.5312 8.19922H37.1367ZM43.6943 11.4766V8H45.1084V14H43.7373V12.9336H43.6748C43.5394 13.2695 43.3167 13.5443 43.0068 13.7578C42.6995 13.9714 42.3206 14.0781 41.8701 14.0781C41.4769 14.0781 41.1292 13.9909 40.8271 13.8164C40.5277 13.6393 40.2933 13.3828 40.124 13.0469C39.9548 12.7083 39.8701 12.2995 39.8701 11.8203V8H41.2842V11.6016C41.2842 11.9818 41.3883 12.2839 41.5967 12.5078C41.805 12.7318 42.0785 12.8437 42.417 12.8437C42.6253 12.8437 42.8271 12.793 43.0225 12.6914C43.2178 12.5898 43.3779 12.4388 43.5029 12.2383C43.6305 12.0352 43.6943 11.7812 43.6943 11.4766ZM46.5625 16.25V8H47.9531V8.99219H48.0352C48.1081 8.84635 48.2109 8.69141 48.3438 8.52734C48.4766 8.36068 48.6563 8.21875 48.8828 8.10156C49.1094 7.98177 49.3984 7.92188 49.75 7.92188C50.2135 7.92188 50.6315 8.04036 51.0039 8.27734C51.3789 8.51172 51.6758 8.85937 51.8945 9.32031C52.1159 9.77865 52.2266 10.3411 52.2266 11.0078C52.2266 11.6667 52.1185 12.2266 51.9023 12.6875C51.6862 13.1484 51.3919 13.5 51.0195 13.7422C50.6471 13.9844 50.2253 14.1055 49.7539 14.1055C49.4102 14.1055 49.125 14.0482 48.8984 13.9336C48.6719 13.819 48.4896 13.681 48.3516 13.5195C48.2161 13.3555 48.1107 13.2005 48.0352 13.0547H47.9766V16.25H46.5625ZM47.9492 11C47.9492 11.388 48.0039 11.7279 48.1133 12.0195C48.2253 12.3112 48.3854 12.5391 48.5938 12.7031C48.8047 12.8646 49.0599 12.9453 49.3594 12.9453C49.6719 12.9453 49.9336 12.862 50.1445 12.6953C50.3555 12.526 50.5143 12.2956 50.6211 12.0039C50.7305 11.7096 50.7852 11.375 50.7852 11C50.7852 10.6276 50.7318 10.2969 50.625 10.0078C50.5182 9.71875 50.3594 9.49219 50.1484 9.32812C49.9375 9.16406 49.6745 9.08203 49.3594 9.08203C49.0573 9.08203 48.8008 9.16146 48.5898 9.32031C48.3789 9.47917 48.2188 9.70182 48.1094 9.98828C48.0026 10.2747 47.9492 10.612 47.9492 11ZM53.4375 16.25V8H54.8281V8.99219H54.9102C54.9831 8.84635 55.0859 8.69141 55.2188 8.52734C55.3516 8.36068 55.5313 8.21875 55.7578 8.10156C55.9844 7.98177 56.2734 7.92188 56.625 7.92188C57.0885 7.92188 57.5065 8.04036 57.8789 8.27734C58.2539 8.51172 58.5508 8.85937 58.7695 9.32031C58.9909 9.77865 59.1016 10.3411 59.1016 11.0078C59.1016 11.6667 58.9935 12.2266 58.7773 12.6875C58.5612 13.1484 58.2669 13.5 57.8945 13.7422C57.5221 13.9844 57.1003 14.1055 56.6289 14.1055C56.2852 14.1055 56 14.0482 55.7734 13.9336C55.5469 13.819 55.3646 13.681 55.2266 13.5195C55.0911 13.3555 54.9857 13.2005 54.9102 13.0547H54.8516V16.25H53.4375ZM54.8242 11C54.8242 11.388 54.8789 11.7279 54.9883 12.0195C55.1003 12.3112 55.2604 12.5391 55.4688 12.7031C55.6797 12.8646 55.9349 12.9453 56.2344 12.9453C56.5469 12.9453 56.8086 12.862 57.0195 12.6953C57.2305 12.526 57.3893 12.2956 57.4961 12.0039C57.6055 11.7096 57.6602 11.375 57.6602 11C57.6602 10.6276 57.6068 10.2969 57.5 10.0078C57.3932 9.71875 57.2344 9.49219 57.0234 9.32812C56.8125 9.16406 56.5495 9.08203 56.2344 9.08203C55.9323 9.08203 55.6758 9.16146 55.4648 9.32031C55.2539 9.47917 55.0938 9.70182 54.9844 9.98828C54.8776 10.2747 54.8242 10.612 54.8242 11ZM62.9297 14.1172C62.3438 14.1172 61.8359 13.9883 61.4062 13.7305C60.9766 13.4727 60.6432 13.112 60.4063 12.6484C60.1719 12.1849 60.0547 11.6432 60.0547 11.0234C60.0547 10.4036 60.1719 9.86068 60.4063 9.39453C60.6432 8.92839 60.9766 8.56641 61.4062 8.30859C61.8359 8.05078 62.3438 7.92188 62.9297 7.92188C63.5156 7.92188 64.0234 8.05078 64.4531 8.30859C64.8828 8.56641 65.2148 8.92839 65.4492 9.39453C65.6862 9.86068 65.8047 10.4036 65.8047 11.0234C65.8047 11.6432 65.6862 12.1849 65.4492 12.6484C65.2148 13.112 64.8828 13.4727 64.4531 13.7305C64.0234 13.9883 63.5156 14.1172 62.9297 14.1172ZM62.9375 12.9844C63.2552 12.9844 63.5208 12.8971 63.7344 12.7227C63.9479 12.5456 64.1068 12.3086 64.2109 12.0117C64.3177 11.7148 64.3711 11.3841 64.3711 11.0195C64.3711 10.6523 64.3177 10.3203 64.2109 10.0234C64.1068 9.72396 63.9479 9.48568 63.7344 9.30859C63.5208 9.13151 63.2552 9.04297 62.9375 9.04297C62.612 9.04297 62.3411 9.13151 62.125 9.30859C61.9115 9.48568 61.7513 9.72396 61.6445 10.0234C61.5404 10.3203 61.4883 10.6523 61.4883 11.0195C61.4883 11.3841 61.5404 11.7148 61.6445 12.0117C61.7513 12.3086 61.9115 12.5456 62.125 12.7227C62.3411 12.8971 62.612 12.9844 62.9375 12.9844ZM67.0049 14V8H68.376V9H68.4385C68.5479 8.65365 68.7354 8.38672 69.001 8.19922C69.2692 8.00911 69.5752 7.91406 69.9189 7.91406C69.9971 7.91406 70.0843 7.91797 70.1807 7.92578C70.2796 7.93099 70.3617 7.9401 70.4268 7.95312V9.25391C70.3669 9.23307 70.2718 9.21484 70.1416 9.19922C70.014 9.18099 69.8903 9.17187 69.7705 9.17187C69.5127 9.17187 69.2809 9.22786 69.0752 9.33984C68.8721 9.44922 68.7119 9.60156 68.5947 9.79687C68.4775 9.99219 68.4189 10.2174 68.4189 10.4727V14H67.0049ZM74.6846 8V9.09375H71.2354V8H74.6846ZM72.0869 6.5625H73.501V12.1953C73.501 12.3854 73.5296 12.5313 73.5869 12.6328C73.6468 12.7318 73.7249 12.7995 73.8213 12.8359C73.9176 12.8724 74.0244 12.8906 74.1416 12.8906C74.2301 12.8906 74.3109 12.8841 74.3838 12.8711C74.4593 12.8581 74.5166 12.8464 74.5557 12.8359L74.7939 13.9414C74.7184 13.9674 74.6104 13.9961 74.4697 14.0273C74.3317 14.0586 74.1624 14.0768 73.9619 14.082C73.6077 14.0924 73.2887 14.0391 73.0049 13.9219C72.721 13.8021 72.4958 13.6172 72.3291 13.3672C72.165 13.1172 72.0843 12.8047 72.0869 12.4297V6.5625ZM78.5957 14V8H79.9473V9.01953H80.0176C80.1426 8.67578 80.3496 8.40755 80.6387 8.21484C80.9277 8.01953 81.2728 7.92188 81.6738 7.92188C82.0801 7.92188 82.4225 8.02083 82.7012 8.21875C82.9824 8.41406 83.1803 8.68099 83.2949 9.01953H83.3574C83.4902 8.6862 83.7142 8.42057 84.0293 8.22266C84.347 8.02214 84.7233 7.92188 85.1582 7.92188C85.7103 7.92188 86.1608 8.09635 86.5098 8.44531C86.8587 8.79427 87.0332 9.30339 87.0332 9.97266V14H85.6152V10.1914C85.6152 9.81901 85.5163 9.54687 85.3184 9.375C85.1204 9.20052 84.8783 9.11328 84.5918 9.11328C84.2507 9.11328 83.9837 9.22005 83.791 9.43359C83.6009 9.64453 83.5059 9.91927 83.5059 10.2578V14H82.1191V10.1328C82.1191 9.82292 82.0254 9.57552 81.8379 9.39062C81.653 9.20573 81.4108 9.11328 81.1113 9.11328C80.9082 9.11328 80.7233 9.16536 80.5566 9.26953C80.39 9.37109 80.2572 9.51562 80.1582 9.70312C80.0592 9.88802 80.0098 10.1042 80.0098 10.3516V14H78.5957ZM91.124 14.1172C90.5225 14.1172 90.0029 13.9922 89.5654 13.7422C89.1305 13.4896 88.7959 13.1328 88.5615 12.6719C88.3271 12.2083 88.21 11.6628 88.21 11.0352C88.21 10.418 88.3271 9.8763 88.5615 9.41016C88.7985 8.94141 89.1292 8.57682 89.5537 8.31641C89.9782 8.05339 90.4769 7.92188 91.0498 7.92188C91.4196 7.92188 91.7686 7.98177 92.0967 8.10156C92.4274 8.21875 92.7191 8.40104 92.9717 8.64844C93.2269 8.89583 93.4274 9.21094 93.5732 9.59375C93.7191 9.97396 93.792 10.4271 93.792 10.9531V11.3867H88.874V10.4336H92.4365C92.4339 10.1628 92.3753 9.92187 92.2607 9.71094C92.1462 9.4974 91.986 9.32943 91.7803 9.20703C91.5771 9.08464 91.3402 9.02344 91.0693 9.02344C90.7803 9.02344 90.5264 9.09375 90.3076 9.23437C90.0889 9.3724 89.9183 9.55469 89.7959 9.78125C89.6761 10.0052 89.6149 10.2513 89.6123 10.5195V11.3516C89.6123 11.7005 89.6761 12 89.8037 12.25C89.9313 12.4974 90.1097 12.6875 90.3389 12.8203C90.568 12.9505 90.8363 13.0156 91.1436 13.0156C91.3493 13.0156 91.5355 12.987 91.7021 12.9297C91.8688 12.8698 92.0133 12.7826 92.1357 12.668C92.2581 12.5534 92.3506 12.4115 92.4131 12.2422L93.7334 12.3906C93.6501 12.7396 93.4912 13.0443 93.2568 13.3047C93.0251 13.5625 92.7282 13.763 92.3662 13.9062C92.0042 14.0469 91.5902 14.1172 91.124 14.1172ZM100.334 14.1172C99.748 14.1172 99.2402 13.9883 98.8105 13.7305C98.3809 13.4727 98.0475 13.112 97.8105 12.6484C97.5762 12.1849 97.459 11.6432 97.459 11.0234C97.459 10.4036 97.5762 9.86068 97.8105 9.39453C98.0475 8.92839 98.3809 8.56641 98.8105 8.30859C99.2402 8.05078 99.748 7.92188 100.334 7.92188C100.92 7.92188 101.428 8.05078 101.857 8.30859C102.287 8.56641 102.619 8.92839 102.854 9.39453C103.09 9.86068 103.209 10.4036 103.209 11.0234C103.209 11.6432 103.09 12.1849 102.854 12.6484C102.619 13.112 102.287 13.4727 101.857 13.7305C101.428 13.9883 100.92 14.1172 100.334 14.1172ZM100.342 12.9844C100.66 12.9844 100.925 12.8971 101.139 12.7227C101.352 12.5456 101.511 12.3086 101.615 12.0117C101.722 11.7148 101.775 11.3841 101.775 11.0195C101.775 10.6523 101.722 10.3203 101.615 10.0234C101.511 9.72396 101.352 9.48568 101.139 9.30859C100.925 9.13151 100.66 9.04297 100.342 9.04297C100.016 9.04297 99.7454 9.13151 99.5293 9.30859C99.3158 9.48568 99.1556 9.72396 99.0488 10.0234C98.9447 10.3203 98.8926 10.6523 98.8926 11.0195C98.8926 11.3841 98.9447 11.7148 99.0488 12.0117C99.1556 12.3086 99.3158 12.5456 99.5293 12.7227C99.7454 12.8971 100.016 12.9844 100.342 12.9844ZM105.823 10.4844V14H104.409V8H105.761V9.01953H105.831C105.969 8.68359 106.189 8.41667 106.491 8.21875C106.796 8.02083 107.172 7.92188 107.62 7.92188C108.034 7.92188 108.395 8.01042 108.702 8.1875C109.012 8.36458 109.252 8.62109 109.421 8.95703C109.593 9.29297 109.677 9.70052 109.675 10.1797V14H108.261V10.3984C108.261 9.9974 108.157 9.68359 107.948 9.45703C107.743 9.23047 107.457 9.11719 107.093 9.11719C106.845 9.11719 106.625 9.17187 106.433 9.28125C106.243 9.38802 106.093 9.54297 105.983 9.74609C105.877 9.94922 105.823 10.1953 105.823 10.4844ZM113.903 14V6H115.353V9.67578H115.45L118.571 6H120.341L117.247 9.58984L120.368 14H118.626L116.239 10.5703L115.353 11.6172V14H113.903ZM123.462 14.1172C122.876 14.1172 122.368 13.9883 121.938 13.7305C121.509 13.4727 121.175 13.112 120.938 12.6484C120.704 12.1849 120.587 11.6432 120.587 11.0234C120.587 10.4036 120.704 9.86068 120.938 9.39453C121.175 8.92839 121.509 8.56641 121.938 8.30859C122.368 8.05078 122.876 7.92188 123.462 7.92188C124.048 7.92188 124.556 8.05078 124.985 8.30859C125.415 8.56641 125.747 8.92839 125.981 9.39453C126.218 9.86068 126.337 10.4036 126.337 11.0234C126.337 11.6432 126.218 12.1849 125.981 12.6484C125.747 13.112 125.415 13.4727 124.985 13.7305C124.556 13.9883 124.048 14.1172 123.462 14.1172ZM123.47 12.9844C123.787 12.9844 124.053 12.8971 124.267 12.7227C124.48 12.5456 124.639 12.3086 124.743 12.0117C124.85 11.7148 124.903 11.3841 124.903 11.0195C124.903 10.6523 124.85 10.3203 124.743 10.0234C124.639 9.72396 124.48 9.48568 124.267 9.30859C124.053 9.13151 123.787 9.04297 123.47 9.04297C123.144 9.04297 122.873 9.13151 122.657 9.30859C122.444 9.48568 122.284 9.72396 122.177 10.0234C122.073 10.3203 122.021 10.6523 122.021 11.0195C122.021 11.3841 122.073 11.7148 122.177 12.0117C122.284 12.3086 122.444 12.5456 122.657 12.7227C122.873 12.8971 123.144 12.9844 123.47 12.9844ZM131.174 10.0859V11.25H127.572V10.0859H131.174ZM135.7 8V9.09375H132.153V8H135.7ZM133.04 14V7.43359C133.04 7.02995 133.123 6.69401 133.29 6.42578C133.459 6.15755 133.686 5.95703 133.97 5.82422C134.254 5.69141 134.569 5.625 134.915 5.625C135.16 5.625 135.377 5.64453 135.567 5.68359C135.757 5.72266 135.898 5.75781 135.989 5.78906L135.708 6.88281C135.648 6.86458 135.573 6.84635 135.481 6.82812C135.39 6.80729 135.289 6.79687 135.177 6.79687C134.914 6.79687 134.728 6.86068 134.618 6.98828C134.511 7.11328 134.458 7.29297 134.458 7.52734V14H133.04ZM136.808 14V8H138.222V14H136.808ZM137.519 7.14844C137.295 7.14844 137.102 7.07422 136.94 6.92578C136.779 6.77474 136.698 6.59375 136.698 6.38281C136.698 6.16927 136.779 5.98828 136.94 5.83984C137.102 5.6888 137.295 5.61328 137.519 5.61328C137.745 5.61328 137.938 5.6888 138.097 5.83984C138.258 5.98828 138.339 6.16927 138.339 6.38281C138.339 6.59375 138.258 6.77474 138.097 6.92578C137.938 7.07422 137.745 7.14844 137.519 7.14844Z" fill="white"/>
</g>
<path d="M11.2126 15.4091L11.5 15.6111L11.7874 15.4091C14.6574 13.3928 16.0952 11.991 16.8088 10.9155C17.1715 10.3687 17.3509 9.90114 17.4339 9.47832C17.5039 9.12159 17.5014 8.80606 17.4995 8.56214C17.4992 8.52454 17.4989 8.48864 17.4989 8.45455C17.4989 7.06822 16.2461 5.5 14.2495 5.5C13.2256 5.5 12.426 5.98745 11.9031 6.44015C11.7472 6.57511 11.6125 6.70977 11.5 6.83264C11.3875 6.70977 11.2528 6.57511 11.0969 6.44015C10.574 5.98745 9.77442 5.5 8.75052 5.5C6.75393 5.5 5.50105 7.06822 5.50105 8.45455C5.50105 8.48863 5.50077 8.52454 5.50047 8.56214C5.49857 8.80606 5.4961 9.12159 5.56613 9.47832C5.64914 9.90114 5.82851 10.3687 6.19123 10.9155C6.90482 11.991 8.34258 13.3928 11.2126 15.4091Z" fill="#ED6A65" stroke="white"/>
</g>
<defs>
<filter id="filter0_d_2_27" x="31.5" y="5.61328" width="107.839" height="12.6367" filterUnits="userSpaceOnUse" color-interpolation-filters="sRGB">
<feFlood flood-opacity="0" result="BackgroundImageFix"/>
<feColorMatrix in="SourceAlpha" type="matrix" values="0 0 0 0 0 0 0 0 0 0 0 0 0 0 0 0 0 0 127 0" result="hardAlpha"/>
<feOffset dy="1"/>
<feGaussianBlur stdDeviation="0.5"/>
<feComposite in2="hardAlpha" operator="out"/>
<feColorMatrix type="matrix" values="0 0 0 0 0 0 0 0 0 0 0 0 0 0 0 0 0 0 0.65 0"/>
<feBlend mode="normal" in2="BackgroundImageFix" result="effect1_dropShadow_2_27"/>
<feBlend mode="normal" in="SourceGraphic" in2="effect1_dropShadow_2_27" result="shape"/>
</filter>
<clipPath id="clip0_2_27">
<rect width="150" height="20" fill="white"/>
</clipPath>
</defs>
</svg>
