<svg width="150" height="20" viewBox="0 0 150 20" fill="none" xmlns="http://www.w3.org/2000/svg">
<g clip-path="url(#clip0_2_27)">
<rect width="150" height="20" fill="white"/>
<path fill-rule="evenodd" clip-rule="evenodd" d="M2 0C0.895431 0 0 0.895431 0 2V18C0 19.1046 0.895429 20 2 20H23V0H2Z" fill="#393939"/>
<path fill-rule="evenodd" clip-rule="evenodd" d="M23 20H148C149.105 20 150 19.1046 150 18V2C150 0.895431 149.105 0 148 0H23V20Z" fill="url(#paint0_linear_2_27)"/>
<g filter="url(#filter0_d_2_27)">
<path d="M38.1367 8.19922C38.1003 7.85807 37.9466 7.59245 37.6758 7.40234C37.4076 7.21224 37.0586 7.11719 36.6289 7.11719C36.3268 7.11719 36.0677 7.16276 35.8516 7.25391C35.6354 7.34505 35.4701 7.46875 35.3555 7.625C35.2409 7.78125 35.1823 7.95964 35.1797 8.16016C35.1797 8.32682 35.2174 8.47135 35.293 8.59375C35.3711 8.71615 35.4766 8.82031 35.6094 8.90625C35.7422 8.98958 35.8893 9.0599 36.0508 9.11719C36.2122 9.17448 36.375 9.22266 36.5391 9.26172L37.2891 9.44922C37.5911 9.51953 37.8815 9.61458 38.1602 9.73437C38.4414 9.85417 38.6927 10.0052 38.9141 10.1875C39.138 10.3698 39.3151 10.5898 39.4453 10.8477C39.5755 11.1055 39.6406 11.4076 39.6406 11.7539C39.6406 12.2227 39.5208 12.6354 39.2813 12.9922C39.0417 13.3464 38.6953 13.6237 38.2422 13.8242C37.7917 14.0221 37.2461 14.1211 36.6055 14.1211C35.9831 14.1211 35.4427 14.0247 34.9844 13.832C34.5286 13.6393 34.1719 13.3581 33.9141 12.9883C33.6589 12.6185 33.5208 12.168 33.5 11.6367H34.9258C34.9466 11.9154 35.0326 12.1471 35.1836 12.332C35.3346 12.5169 35.5313 12.6549 35.7734 12.7461C36.0182 12.8372 36.2917 12.8828 36.5938 12.8828C36.9089 12.8828 37.1849 12.8359 37.4219 12.7422C37.6615 12.6458 37.849 12.513 37.9844 12.3437C38.1198 12.1719 38.1888 11.9714 38.1914 11.7422C38.1888 11.5339 38.1276 11.362 38.0078 11.2266C37.888 11.0885 37.7201 10.974 37.5039 10.8828C37.2904 10.7891 37.0404 10.7057 36.7539 10.6328L35.8438 10.3984C35.1849 10.2292 34.6641 9.97266 34.2813 9.62891C33.901 9.28255 33.7109 8.82292 33.7109 8.25C33.7109 7.77865 33.8385 7.36589 34.0938 7.01172C34.3516 6.65755 34.7018 6.38281 35.1445 6.1875C35.5872 5.98958 36.0885 5.89062 36.6484 5.89062C37.2161 5.89062 37.7135 5.98958 38.1406 6.1875C38.5703 6.38281 38.9076 6.65495 39.1523 7.00391C39.3971 7.35026 39.5234 7.7487 39.5312 8.19922H38.1367ZM44.6943 11.4766V8H46.1084V14H44.7373V12.9336H44.6748C44.5394 13.2695 44.3167 13.5443 44.0068 13.7578C43.6995 13.9714 43.3206 14.0781 42.8701 14.0781C42.4769 14.0781 42.1292 13.9909 41.8271 13.8164C41.5277 13.6393 41.2933 13.3828 41.124 13.0469C40.9548 12.7083 40.8701 12.2995 40.8701 11.8203V8H42.2842V11.6016C42.2842 11.9818 42.3883 12.2839 42.5967 12.5078C42.805 12.7318 43.0785 12.8437 43.417 12.8437C43.6253 12.8437 43.8271 12.793 44.0225 12.6914C44.2178 12.5898 44.3779 12.4388 44.5029 12.2383C44.6305 12.0352 44.6943 11.7812 44.6943 11.4766ZM47.5625 16.25V8H48.9531V8.99219H49.0352C49.1081 8.84635 49.2109 8.69141 49.3438 8.52734C49.4766 8.36068 49.6563 8.21875 49.8828 8.10156C50.1094 7.98177 50.3984 7.92188 50.75 7.92188C51.2135 7.92188 51.6315 8.04036 52.0039 8.27734C52.3789 8.51172 52.6758 8.85937 52.8945 9.32031C53.1159 9.77865 53.2266 10.3411 53.2266 11.0078C53.2266 11.6667 53.1185 12.2266 52.9023 12.6875C52.6862 13.1484 52.3919 13.5 52.0195 13.7422C51.6471 13.9844 51.2253 14.1055 50.7539 14.1055C50.4102 14.1055 50.125 14.0482 49.8984 13.9336C49.6719 13.819 49.4896 13.681 49.3516 13.5195C49.2161 13.3555 49.1107 13.2005 49.0352 13.0547H48.9766V16.25H47.5625ZM48.9492 11C48.9492 11.388 49.0039 11.7279 49.1133 12.0195C49.2253 12.3112 49.3854 12.5391 49.5938 12.7031C49.8047 12.8646 50.0599 12.9453 50.3594 12.9453C50.6719 12.9453 50.9336 12.862 51.1445 12.6953C51.3555 12.526 51.5143 12.2956 51.6211 12.0039C51.7305 11.7096 51.7852 11.375 51.7852 11C51.7852 10.6276 51.7318 10.2969 51.625 10.0078C51.5182 9.71875 51.3594 9.49219 51.1484 9.32812C50.9375 9.16406 50.6745 9.08203 50.3594 9.08203C50.0573 9.08203 49.8008 9.16146 49.5898 9.32031C49.3789 9.47917 49.2188 9.70182 49.1094 9.98828C49.0026 10.2747 48.9492 10.612 48.9492 11ZM54.4375 16.25V8H55.8281V8.99219H55.9102C55.9831 8.84635 56.0859 8.69141 56.2188 8.52734C56.3516 8.36068 56.5313 8.21875 56.7578 8.10156C56.9844 7.98177 57.2734 7.92188 57.625 7.92188C58.0885 7.92188 58.5065 8.04036 58.8789 8.27734C59.2539 8.51172 59.5508 8.85937 59.7695 9.32031C59.9909 9.77865 60.1016 10.3411 60.1016 11.0078C60.1016 11.6667 59.9935 12.2266 59.7773 12.6875C59.5612 13.1484 59.2669 13.5 58.8945 13.7422C58.5221 13.9844 58.1003 14.1055 57.6289 14.1055C57.2852 14.1055 57 14.0482 56.7734 13.9336C56.5469 13.819 56.3646 13.681 56.2266 13.5195C56.0911 13.3555 55.9857 13.2005 55.9102 13.0547H55.8516V16.25H54.4375ZM55.8242 11C55.8242 11.388 55.8789 11.7279 55.9883 12.0195C56.1003 12.3112 56.2604 12.5391 56.4688 12.7031C56.6797 12.8646 56.9349 12.9453 57.2344 12.9453C57.5469 12.9453 57.8086 12.862 58.0195 12.6953C58.2305 12.526 58.3893 12.2956 58.4961 12.0039C58.6055 11.7096 58.6602 11.375 58.6602 11C58.6602 10.6276 58.6068 10.2969 58.5 10.0078C58.3932 9.71875 58.2344 9.49219 58.0234 9.32812C57.8125 9.16406 57.5495 9.08203 57.2344 9.08203C56.9323 9.08203 56.6758 9.16146 56.4648 9.32031C56.2539 9.47917 56.0938 9.70182 55.9844 9.98828C55.8776 10.2747 55.8242 10.612 55.8242 11ZM63.9297 14.1172C63.3438 14.1172 62.8359 13.9883 62.4062 13.7305C61.9766 13.4727 61.6432 13.112 61.4063 12.6484C61.1719 12.1849 61.0547 11.6432 61.0547 11.0234C61.0547 10.4036 61.1719 9.86068 61.4063 9.39453C61.6432 8.92839 61.9766 8.56641 62.4062 8.30859C62.8359 8.05078 63.3438 7.92188 63.9297 7.92188C64.5156 7.92188 65.0234 8.05078 65.4531 8.30859C65.8828 8.56641 66.2148 8.92839 66.4492 9.39453C66.6862 9.86068 66.8047 10.4036 66.8047 11.0234C66.8047 11.6432 66.6862 12.1849 66.4492 12.6484C66.2148 13.112 65.8828 13.4727 65.4531 13.7305C65.0234 13.9883 64.5156 14.1172 63.9297 14.1172ZM63.9375 12.9844C64.2552 12.9844 64.5208 12.8971 64.7344 12.7227C64.9479 12.5456 65.1068 12.3086 65.2109 12.0117C65.3177 11.7148 65.3711 11.3841 65.3711 11.0195C65.3711 10.6523 65.3177 10.3203 65.2109 10.0234C65.1068 9.72396 64.9479 9.48568 64.7344 9.30859C64.5208 9.13151 64.2552 9.04297 63.9375 9.04297C63.612 9.04297 63.3411 9.13151 63.125 9.30859C62.9115 9.48568 62.7513 9.72396 62.6445 10.0234C62.5404 10.3203 62.4883 10.6523 62.4883 11.0195C62.4883 11.3841 62.5404 11.7148 62.6445 12.0117C62.7513 12.3086 62.9115 12.5456 63.125 12.7227C63.3411 12.8971 63.612 12.9844 63.9375 12.9844ZM68.0049 14V8H69.376V9H69.4385C69.5479 8.65365 69.7354 8.38672 70.001 8.19922C70.2692 8.00911 70.5752 7.91406 70.9189 7.91406C70.9971 7.91406 71.0843 7.91797 71.1807 7.92578C71.2796 7.93099 71.3617 7.9401 71.4268 7.95312V9.25391C71.3669 9.23307 71.2718 9.21484 71.1416 9.19922C71.014 9.18099 70.8903 9.17187 70.7705 9.17187C70.5127 9.17187 70.2809 9.22786 70.0752 9.33984C69.8721 9.44922 69.7119 9.60156 69.5947 9.79687C69.4775 9.99219 69.4189 10.2174 69.4189 10.4727V14H68.0049ZM75.6846 8V9.09375H72.2354V8H75.6846ZM73.0869 6.5625H74.501V12.1953C74.501 12.3854 74.5296 12.5313 74.5869 12.6328C74.6468 12.7318 74.7249 12.7995 74.8213 12.8359C74.9176 12.8724 75.0244 12.8906 75.1416 12.8906C75.2301 12.8906 75.3109 12.8841 75.3838 12.8711C75.4593 12.8581 75.5166 12.8464 75.5557 12.8359L75.7939 13.9414C75.7184 13.9674 75.6104 13.9961 75.4697 14.0273C75.3317 14.0586 75.1624 14.0768 74.9619 14.082C74.6077 14.0924 74.2887 14.0391 74.0049 13.9219C73.721 13.8021 73.4958 13.6172 73.3291 13.3672C73.165 13.1172 73.0843 12.8047 73.0869 12.4297V6.5625ZM79.5957 14V8H80.9473V9.01953H81.0176C81.1426 8.67578 81.3496 8.40755 81.6387 8.21484C81.9277 8.01953 82.2728 7.92188 82.6738 7.92188C83.0801 7.92188 83.4225 8.02083 83.7012 8.21875C83.9824 8.41406 84.1803 8.68099 84.2949 9.01953H84.3574C84.4902 8.6862 84.7142 8.42057 85.0293 8.22266C85.347 8.02214 85.7233 7.92188 86.1582 7.92188C86.7103 7.92188 87.1608 8.09635 87.5098 8.44531C87.8587 8.79427 88.0332 9.30339 88.0332 9.97266V14H86.6152V10.1914C86.6152 9.81901 86.5163 9.54687 86.3184 9.375C86.1204 9.20052 85.8783 9.11328 85.5918 9.11328C85.2507 9.11328 84.9837 9.22005 84.791 9.43359C84.6009 9.64453 84.5059 9.91927 84.5059 10.2578V14H83.1191V10.1328C83.1191 9.82292 83.0254 9.57552 82.8379 9.39062C82.653 9.20573 82.4108 9.11328 82.1113 9.11328C81.9082 9.11328 81.7233 9.16536 81.5566 9.26953C81.39 9.37109 81.2572 9.51562 81.1582 9.70312C81.0592 9.88802 81.0098 10.1042 81.0098 10.3516V14H79.5957ZM92.124 14.1172C91.5225 14.1172 91.0029 13.9922 90.5654 13.7422C90.1305 13.4896 89.7959 13.1328 89.5615 12.6719C89.3271 12.2083 89.21 11.6628 89.21 11.0352C89.21 10.418 89.3271 9.8763 89.5615 9.41016C89.7985 8.94141 90.1292 8.57682 90.5537 8.31641C90.9782 8.05339 91.4769 7.92188 92.0498 7.92188C92.4196 7.92188 92.7686 7.98177 93.0967 8.10156C93.4274 8.21875 93.7191 8.40104 93.9717 8.64844C94.2269 8.89583 94.4274 9.21094 94.5732 9.59375C94.7191 9.97396 94.792 10.4271 94.792 10.9531V11.3867H89.874V10.4336H93.4365C93.4339 10.1628 93.3753 9.92187 93.2607 9.71094C93.1462 9.4974 92.986 9.32943 92.7803 9.20703C92.5771 9.08464 92.3402 9.02344 92.0693 9.02344C91.7803 9.02344 91.5264 9.09375 91.3076 9.23437C91.0889 9.3724 90.9183 9.55469 90.7959 9.78125C90.6761 10.0052 90.6149 10.2513 90.6123 10.5195V11.3516C90.6123 11.7005 90.6761 12 90.8037 12.25C90.9313 12.4974 91.1097 12.6875 91.3389 12.8203C91.568 12.9505 91.8363 13.0156 92.1436 13.0156C92.3493 13.0156 92.5355 12.987 92.7021 12.9297C92.8688 12.8698 93.0133 12.7826 93.1357 12.668C93.2581 12.5534 93.3506 12.4115 93.4131 12.2422L94.7334 12.3906C94.6501 12.7396 94.4912 13.0443 94.2568 13.3047C94.0251 13.5625 93.7282 13.763 93.3662 13.9062C93.0042 14.0469 92.5902 14.1172 92.124 14.1172ZM101.334 14.1172C100.748 14.1172 100.24 13.9883 99.8105 13.7305C99.3809 13.4727 99.0475 13.112 98.8105 12.6484C98.5762 12.1849 98.459 11.6432 98.459 11.0234C98.459 10.4036 98.5762 9.86068 98.8105 9.39453C99.0475 8.92839 99.3809 8.56641 99.8105 8.30859C100.24 8.05078 100.748 7.92188 101.334 7.92188C101.92 7.92188 102.428 8.05078 102.857 8.30859C103.287 8.56641 103.619 8.92839 103.854 9.39453C104.09 9.86068 104.209 10.4036 104.209 11.0234C104.209 11.6432 104.09 12.1849 103.854 12.6484C103.619 13.112 103.287 13.4727 102.857 13.7305C102.428 13.9883 101.92 14.1172 101.334 14.1172ZM101.342 12.9844C101.66 12.9844 101.925 12.8971 102.139 12.7227C102.352 12.5456 102.511 12.3086 102.615 12.0117C102.722 11.7148 102.775 11.3841 102.775 11.0195C102.775 10.6523 102.722 10.3203 102.615 10.0234C102.511 9.72396 102.352 9.48568 102.139 9.30859C101.925 9.13151 101.66 9.04297 101.342 9.04297C101.016 9.04297 100.745 9.13151 100.529 9.30859C100.316 9.48568 100.156 9.72396 100.049 10.0234C99.9447 10.3203 99.8926 10.6523 99.8926 11.0195C99.8926 11.3841 99.9447 11.7148 100.049 12.0117C100.156 12.3086 100.316 12.5456 100.529 12.7227C100.745 12.8971 101.016 12.9844 101.342 12.9844ZM106.823 10.4844V14H105.409V8H106.761V9.01953H106.831C106.969 8.68359 107.189 8.41667 107.491 8.21875C107.796 8.02083 108.172 7.92188 108.62 7.92188C109.034 7.92188 109.395 8.01042 109.702 8.1875C110.012 8.36458 110.252 8.62109 110.421 8.95703C110.593 9.29297 110.677 9.70052 110.675 10.1797V14H109.261V10.3984C109.261 9.9974 109.157 9.68359 108.948 9.45703C108.743 9.23047 108.457 9.11719 108.093 9.11719C107.845 9.11719 107.625 9.17187 107.433 9.28125C107.243 9.38802 107.093 9.54297 106.983 9.74609C106.877 9.94922 106.823 10.1953 106.823 10.4844ZM114.903 14V6H116.353V9.67578H116.45L119.571 6H121.341L118.247 9.58984L121.368 14H119.626L117.239 10.5703L116.353 11.6172V14H114.903ZM124.462 14.1172C123.876 14.1172 123.368 13.9883 122.938 13.7305C122.509 13.4727 122.175 13.112 121.938 12.6484C121.704 12.1849 121.587 11.6432 121.587 11.0234C121.587 10.4036 121.704 9.86068 121.938 9.39453C122.175 8.92839 122.509 8.56641 122.938 8.30859C123.368 8.05078 123.876 7.92188 124.462 7.92188C125.048 7.92188 125.556 8.05078 125.985 8.30859C126.415 8.56641 126.747 8.92839 126.981 9.39453C127.218 9.86068 127.337 10.4036 127.337 11.0234C127.337 11.6432 127.218 12.1849 126.981 12.6484C126.747 13.112 126.415 13.4727 125.985 13.7305C125.556 13.9883 125.048 14.1172 124.462 14.1172ZM124.47 12.9844C124.787 12.9844 125.053 12.8971 125.267 12.7227C125.48 12.5456 125.639 12.3086 125.743 12.0117C125.85 11.7148 125.903 11.3841 125.903 11.0195C125.903 10.6523 125.85 10.3203 125.743 10.0234C125.639 9.72396 125.48 9.48568 125.267 9.30859C125.053 9.13151 124.787 9.04297 124.47 9.04297C124.144 9.04297 123.873 9.13151 123.657 9.30859C123.444 9.48568 123.284 9.72396 123.177 10.0234C123.073 10.3203 123.021 10.6523 123.021 11.0195C123.021 11.3841 123.073 11.7148 123.177 12.0117C123.284 12.3086 123.444 12.5456 123.657 12.7227C123.873 12.8971 124.144 12.9844 124.47 12.9844ZM132.174 10.0859V11.25H128.572V10.0859H132.174ZM136.7 8V9.09375H133.153V8H136.7ZM134.04 14V7.43359C134.04 7.02995 134.123 6.69401 134.29 6.42578C134.459 6.15755 134.686 5.95703 134.97 5.82422C135.254 5.69141 135.569 5.625 135.915 5.625C136.16 5.625 136.377 5.64453 136.567 5.68359C136.757 5.72266 136.898 5.75781 136.989 5.78906L136.708 6.88281C136.648 6.86458 136.573 6.84635 136.481 6.82812C136.39 6.80729 136.289 6.79687 136.177 6.79687C135.914 6.79687 135.728 6.86068 135.618 6.98828C135.511 7.11328 135.458 7.29297 135.458 7.52734V14H134.04ZM137.808 14V8H139.222V14H137.808ZM138.519 7.14844C138.295 7.14844 138.102 7.07422 137.94 6.92578C137.779 6.77474 137.698 6.59375 137.698 6.38281C137.698 6.16927 137.779 5.98828 137.94 5.83984C138.102 5.6888 138.295 5.61328 138.519 5.61328C138.745 5.61328 138.938 5.6888 139.097 5.83984C139.258 5.98828 139.339 6.16927 139.339 6.38281C139.339 6.59375 139.258 6.77474 139.097 6.92578C138.938 7.07422 138.745 7.14844 138.519 7.14844Z" fill="white"/>
</g>
<path d="M11.2126 15.4091L11.5 15.6111L11.7874 15.4091C14.6574 13.3928 16.0952 11.991 16.8088 10.9155C17.1715 10.3687 17.3509 9.90114 17.4339 9.47832C17.5039 9.12159 17.5014 8.80606 17.4995 8.56214C17.4992 8.52454 17.4989 8.48864 17.4989 8.45455C17.4989 7.06822 16.2461 5.5 14.2495 5.5C13.2256 5.5 12.426 5.98745 11.9031 6.44015C11.7472 6.57511 11.6125 6.70977 11.5 6.83264C11.3875 6.70977 11.2528 6.57511 11.0969 6.44015C10.574 5.98745 9.77442 5.5 8.75052 5.5C6.75393 5.5 5.50105 7.06822 5.50105 8.45455C5.50105 8.48863 5.50077 8.52454 5.50047 8.56214C5.49857 8.80606 5.4961 9.12159 5.56613 9.47832C5.64914 9.90114 5.82851 10.3687 6.19123 10.9155C6.90482 11.991 8.34258 13.3928 11.2126 15.4091Z" fill="#ED6A65" stroke="white"/>
</g>
<defs>
<filter id="filter0_d_2_27" x="32.5" y="5.61328" width="107.839" height="12.6367" filterUnits="userSpaceOnUse" color-interpolation-filters="sRGB">
<feFlood flood-opacity="0" result="BackgroundImageFix"/>
<feColorMatrix in="SourceAlpha" type="matrix" values="0 0 0 0 0 0 0 0 0 0 0 0 0 0 0 0 0 0 127 0" result="hardAlpha"/>
<feOffset dy="1"/>
<feGaussianBlur stdDeviation="0.5"/>
<feComposite in2="hardAlpha" operator="out"/>
<feColorMatrix type="matrix" values="0 0 0 0 0 0 0 0 0 0 0 0 0 0 0 0 0 0 0.75 0"/>
<feBlend mode="normal" in2="BackgroundImageFix" result="effect1_dropShadow_2_27"/>
<feBlend mode="normal" in="SourceGraphic" in2="effect1_dropShadow_2_27" result="shape"/>
</filter>
<linearGradient id="paint0_linear_2_27" x1="150" y1="0" x2="150" y2="44.5" gradientUnits="userSpaceOnUse">
<stop stop-color="#ED6A65"/>
<stop offset="1" stop-color="#A64A47"/>
</linearGradient>
<clipPath id="clip0_2_27">
<rect width="150" height="20" fill="white"/>
</clipPath>
</defs>
</svg>
