<svg width="150" height="20" viewBox="0 0 150 20" fill="none" xmlns="http://www.w3.org/2000/svg">
<g clip-path="url(#clip0_2_27)">
<rect width="150" height="20" fill="white"/>
<path fill-rule="evenodd" clip-rule="evenodd" d="M2 0C0.895431 0 0 0.895431 0 2V18C0 19.1046 0.895429 20 2 20H23V0H2Z" fill="#E4E4E4"/>
<path fill-rule="evenodd" clip-rule="evenodd" d="M23 20H148C149.105 20 150 19.1046 150 18V2C150 0.895431 149.105 0 148 0H23V20Z" fill="#ED6A65"/>
<g filter="url(#filter0_d_2_27)">
<path d="M38.2422 8.10156C38.2005 7.73177 38.0286 7.44531 37.7266 7.24219C37.4245 7.03646 37.0443 6.93359 36.5859 6.93359C36.2578 6.93359 35.974 6.98568 35.7344 7.08984C35.4948 7.19141 35.3086 7.33203 35.1758 7.51172C35.0456 7.6888 34.9805 7.89062 34.9805 8.11719C34.9805 8.30729 35.0247 8.47135 35.1133 8.60937C35.2044 8.7474 35.3229 8.86328 35.4688 8.95703C35.6172 9.04818 35.776 9.125 35.9453 9.1875C36.1146 9.2474 36.2773 9.29687 36.4336 9.33594L37.2148 9.53906C37.4701 9.60156 37.7318 9.6862 38 9.79297C38.2682 9.89974 38.5169 10.0404 38.7461 10.2148C38.9753 10.3893 39.1602 10.6055 39.3008 10.8633C39.444 11.1211 39.5156 11.4297 39.5156 11.7891C39.5156 12.2422 39.3984 12.6445 39.1641 12.9961C38.9323 13.3477 38.5951 13.625 38.1523 13.8281C37.7122 14.0313 37.1797 14.1328 36.5547 14.1328C35.9557 14.1328 35.4375 14.0378 35 13.8477C34.5625 13.6576 34.2201 13.388 33.9727 13.0391C33.7253 12.6875 33.5885 12.2708 33.5625 11.7891H34.7734C34.7969 12.0781 34.8906 12.319 35.0547 12.5117C35.2214 12.7018 35.4336 12.8437 35.6914 12.9375C35.9518 13.0286 36.237 13.0742 36.5469 13.0742C36.888 13.0742 37.1914 13.0208 37.457 12.9141C37.7253 12.8047 37.9362 12.6536 38.0898 12.4609C38.2435 12.2656 38.3203 12.0378 38.3203 11.7773C38.3203 11.5404 38.2526 11.3464 38.1172 11.1953C37.9844 11.0443 37.8034 10.9193 37.5742 10.8203C37.3477 10.7214 37.0911 10.6341 36.8047 10.5586L35.8594 10.3008C35.2188 10.1263 34.7109 9.86979 34.3359 9.53125C33.9635 9.19271 33.7773 8.74479 33.7773 8.1875C33.7773 7.72656 33.9023 7.32422 34.1523 6.98047C34.4023 6.63672 34.7409 6.36979 35.168 6.17969C35.5951 5.98698 36.0768 5.89062 36.6133 5.89062C37.1549 5.89062 37.6328 5.98568 38.0469 6.17578C38.4635 6.36589 38.7917 6.6276 39.0313 6.96094C39.2708 7.29167 39.3958 7.67187 39.4063 8.10156H38.2422ZM44.665 11.5117V8H45.8369V14H44.6885V12.9609H44.626C44.488 13.2813 44.2666 13.5482 43.9619 13.7617C43.6598 13.9727 43.2835 14.0781 42.833 14.0781C42.4476 14.0781 42.1064 13.9935 41.8096 13.8242C41.5153 13.6523 41.2835 13.3984 41.1143 13.0625C40.9476 12.7266 40.8643 12.3112 40.8643 11.8164V8H42.0322V11.6758C42.0322 12.0846 42.1455 12.4102 42.3721 12.6523C42.5986 12.8945 42.8929 13.0156 43.2549 13.0156C43.4736 13.0156 43.6911 12.9609 43.9072 12.8516C44.126 12.7422 44.307 12.5768 44.4502 12.3555C44.596 12.1341 44.6676 11.8529 44.665 11.5117ZM47.4063 16.25V8H48.5469V8.97266H48.6445C48.7122 8.84766 48.8099 8.70312 48.9375 8.53906C49.0651 8.375 49.2422 8.23177 49.4688 8.10937C49.6953 7.98438 49.9948 7.92188 50.3672 7.92188C50.8516 7.92188 51.2839 8.04427 51.6641 8.28906C52.0443 8.53385 52.3424 8.88672 52.5586 9.34766C52.7773 9.80859 52.8867 10.3633 52.8867 11.0117C52.8867 11.6602 52.7786 12.2161 52.5625 12.6797C52.3464 13.1406 52.0495 13.4961 51.6719 13.7461C51.2943 13.9935 50.8633 14.1172 50.3789 14.1172C50.0143 14.1172 49.7161 14.056 49.4844 13.9336C49.2552 13.8112 49.0755 13.668 48.9453 13.5039C48.8151 13.3398 48.7148 13.194 48.6445 13.0664H48.5742V16.25H47.4063ZM48.5508 11C48.5508 11.4219 48.612 11.7917 48.7344 12.1094C48.8568 12.4271 49.0339 12.6758 49.2656 12.8555C49.4974 13.0326 49.7813 13.1211 50.1172 13.1211C50.4661 13.1211 50.7578 13.0286 50.9922 12.8437C51.2266 12.6562 51.4036 12.4023 51.5234 12.082C51.6458 11.7617 51.707 11.401 51.707 11C51.707 10.6042 51.6471 10.2487 51.5273 9.93359C51.4102 9.61849 51.2331 9.36979 50.9961 9.1875C50.7617 9.00521 50.4688 8.91406 50.1172 8.91406C49.7786 8.91406 49.4922 9.0013 49.2578 9.17578C49.026 9.35026 48.8503 9.59375 48.7305 9.90625C48.6107 10.2187 48.5508 10.5833 48.5508 11ZM54.1953 16.25V8H55.3359V8.97266H55.4336C55.5013 8.84766 55.599 8.70312 55.7266 8.53906C55.8542 8.375 56.0313 8.23177 56.2578 8.10937C56.4844 7.98438 56.7839 7.92188 57.1563 7.92188C57.6406 7.92188 58.0729 8.04427 58.4531 8.28906C58.8333 8.53385 59.1315 8.88672 59.3477 9.34766C59.5664 9.80859 59.6758 10.3633 59.6758 11.0117C59.6758 11.6602 59.5677 12.2161 59.3516 12.6797C59.1354 13.1406 58.8385 13.4961 58.4609 13.7461C58.0833 13.9935 57.6523 14.1172 57.168 14.1172C56.8034 14.1172 56.5052 14.056 56.2734 13.9336C56.0443 13.8112 55.8646 13.668 55.7344 13.5039C55.6042 13.3398 55.5039 13.194 55.4336 13.0664H55.3633V16.25H54.1953ZM55.3398 11C55.3398 11.4219 55.401 11.7917 55.5234 12.1094C55.6458 12.4271 55.8229 12.6758 56.0547 12.8555C56.2865 13.0326 56.5703 13.1211 56.9063 13.1211C57.2552 13.1211 57.5469 13.0286 57.7812 12.8437C58.0156 12.6562 58.1927 12.4023 58.3125 12.082C58.4349 11.7617 58.4961 11.401 58.4961 11C58.4961 10.6042 58.4362 10.2487 58.3164 9.93359C58.1992 9.61849 58.0221 9.36979 57.7852 9.1875C57.5508 9.00521 57.2578 8.91406 56.9063 8.91406C56.5677 8.91406 56.2813 9.0013 56.0469 9.17578C55.8151 9.35026 55.6393 9.59375 55.5195 9.90625C55.3997 10.2187 55.3398 10.5833 55.3398 11ZM63.5117 14.1211C62.9492 14.1211 62.4583 13.9922 62.0391 13.7344C61.6198 13.4766 61.2943 13.1159 61.0625 12.6523C60.8307 12.1888 60.7148 11.6471 60.7148 11.0273C60.7148 10.4049 60.8307 9.86068 61.0625 9.39453C61.2943 8.92839 61.6198 8.56641 62.0391 8.30859C62.4583 8.05078 62.9492 7.92188 63.5117 7.92188C64.0742 7.92188 64.5651 8.05078 64.9844 8.30859C65.4036 8.56641 65.7292 8.92839 65.9609 9.39453C66.1927 9.86068 66.3086 10.4049 66.3086 11.0273C66.3086 11.6471 66.1927 12.1888 65.9609 12.6523C65.7292 13.1159 65.4036 13.4766 64.9844 13.7344C64.5651 13.9922 64.0742 14.1211 63.5117 14.1211ZM63.5156 13.1406C63.8802 13.1406 64.1823 13.0443 64.4219 12.8516C64.6615 12.6589 64.8385 12.4023 64.9531 12.082C65.0703 11.7617 65.1289 11.4089 65.1289 11.0234C65.1289 10.6406 65.0703 10.2891 64.9531 9.96875C64.8385 9.64583 64.6615 9.38672 64.4219 9.19141C64.1823 8.99609 63.8802 8.89844 63.5156 8.89844C63.1484 8.89844 62.8438 8.99609 62.6016 9.19141C62.362 9.38672 62.1836 9.64583 62.0664 9.96875C61.9518 10.2891 61.8945 10.6406 61.8945 11.0234C61.8945 11.4089 61.9518 11.7617 62.0664 12.082C62.1836 12.4023 62.362 12.6589 62.6016 12.8516C62.8438 13.0443 63.1484 13.1406 63.5156 13.1406ZM67.6123 14V8H68.7412V8.95312H68.8037C68.9131 8.63021 69.1058 8.3763 69.3818 8.19141C69.6605 8.00391 69.9756 7.91016 70.3271 7.91016C70.4001 7.91016 70.486 7.91276 70.585 7.91797C70.6865 7.92318 70.766 7.92969 70.8232 7.9375V9.05469C70.7764 9.04167 70.693 9.02734 70.5732 9.01172C70.4535 8.99349 70.3337 8.98437 70.2139 8.98437C69.9378 8.98437 69.6917 9.04297 69.4756 9.16016C69.262 9.27474 69.0928 9.4349 68.9678 9.64062C68.8428 9.84375 68.7803 10.0755 68.7803 10.3359V14H67.6123ZM74.9893 8V8.9375H71.7119V8H74.9893ZM72.5908 6.5625H73.7588V12.2383C73.7588 12.4648 73.7926 12.6354 73.8604 12.75C73.9281 12.862 74.0153 12.9388 74.1221 12.9805C74.2314 13.0195 74.3499 13.0391 74.4775 13.0391C74.5713 13.0391 74.6533 13.0326 74.7236 13.0195C74.7939 13.0065 74.8486 12.9961 74.8877 12.9883L75.0986 13.9531C75.0309 13.9792 74.9346 14.0052 74.8096 14.0313C74.6846 14.0599 74.5283 14.0755 74.3408 14.0781C74.0335 14.0833 73.7471 14.0286 73.4814 13.9141C73.2158 13.7995 73.001 13.6224 72.8369 13.3828C72.6729 13.1432 72.5908 12.8424 72.5908 12.4805V6.5625ZM79.1924 14V8H80.3135V8.97656H80.3877C80.5127 8.64583 80.7171 8.38802 81.001 8.20313C81.2848 8.01563 81.6247 7.92188 82.0205 7.92188C82.4215 7.92188 82.7575 8.01563 83.0283 8.20313C83.3018 8.39062 83.5036 8.64844 83.6338 8.97656H83.6963C83.8395 8.65625 84.0674 8.40104 84.3799 8.21094C84.6924 8.01823 85.0648 7.92188 85.4971 7.92188C86.0413 7.92188 86.4854 8.09245 86.8291 8.43359C87.1755 8.77474 87.3486 9.28906 87.3486 9.97656V14H86.1807V10.0859C86.1807 9.67969 86.07 9.38542 85.8486 9.20312C85.6273 9.02083 85.363 8.92969 85.0557 8.92969C84.6755 8.92969 84.3799 9.04687 84.1689 9.28125C83.958 9.51302 83.8525 9.8112 83.8525 10.1758V14H82.6885V10.0117C82.6885 9.6862 82.5869 9.42448 82.3838 9.22656C82.1807 9.02865 81.9163 8.92969 81.5908 8.92969C81.3695 8.92969 81.165 8.98828 80.9775 9.10547C80.7926 9.22005 80.6429 9.38021 80.5283 9.58594C80.4163 9.79167 80.3604 10.0299 80.3604 10.3008V14H79.1924ZM91.5 14.1211C90.9089 14.1211 90.3997 13.9948 89.9727 13.7422C89.5482 13.487 89.2201 13.1289 88.9883 12.668C88.7591 12.2044 88.6445 11.6615 88.6445 11.0391C88.6445 10.4245 88.7591 9.88281 88.9883 9.41406C89.2201 8.94531 89.543 8.57943 89.957 8.31641C90.3737 8.05339 90.8607 7.92188 91.418 7.92188C91.7565 7.92188 92.0846 7.97786 92.4023 8.08984C92.7201 8.20182 93.0052 8.3776 93.2578 8.61719C93.5104 8.85677 93.7096 9.16797 93.8555 9.55078C94.0013 9.93099 94.0742 10.3932 94.0742 10.9375V11.3516H89.3047V10.4766H92.9297C92.9297 10.1693 92.8672 9.89714 92.7422 9.66016C92.6172 9.42057 92.4414 9.23177 92.2148 9.09375C91.9909 8.95573 91.7279 8.88672 91.4258 8.88672C91.0977 8.88672 90.8112 8.96745 90.5664 9.12891C90.3242 9.28776 90.1367 9.49609 90.0039 9.75391C89.8737 10.0091 89.8086 10.2865 89.8086 10.5859V11.2695C89.8086 11.6706 89.8789 12.0117 90.0195 12.293C90.1628 12.5742 90.362 12.7891 90.6172 12.9375C90.8724 13.0833 91.1706 13.1562 91.5117 13.1562C91.7331 13.1562 91.9349 13.125 92.1172 13.0625C92.2995 12.9974 92.457 12.901 92.5898 12.7734C92.7227 12.6458 92.8242 12.4883 92.8945 12.3008L94 12.5C93.9115 12.8255 93.7526 13.1107 93.5234 13.3555C93.2969 13.5977 93.0117 13.7865 92.668 13.9219C92.3268 14.0547 91.9375 14.1211 91.5 14.1211ZM100.809 14.1211C100.246 14.1211 99.7552 13.9922 99.3359 13.7344C98.9167 13.4766 98.5911 13.1159 98.3594 12.6523C98.1276 12.1888 98.0117 11.6471 98.0117 11.0273C98.0117 10.4049 98.1276 9.86068 98.3594 9.39453C98.5911 8.92839 98.9167 8.56641 99.3359 8.30859C99.7552 8.05078 100.246 7.92188 100.809 7.92188C101.371 7.92188 101.862 8.05078 102.281 8.30859C102.701 8.56641 103.026 8.92839 103.258 9.39453C103.49 9.86068 103.605 10.4049 103.605 11.0273C103.605 11.6471 103.49 12.1888 103.258 12.6523C103.026 13.1159 102.701 13.4766 102.281 13.7344C101.862 13.9922 101.371 14.1211 100.809 14.1211ZM100.813 13.1406C101.177 13.1406 101.479 13.0443 101.719 12.8516C101.958 12.6589 102.135 12.4023 102.25 12.082C102.367 11.7617 102.426 11.4089 102.426 11.0234C102.426 10.6406 102.367 10.2891 102.25 9.96875C102.135 9.64583 101.958 9.38672 101.719 9.19141C101.479 8.99609 101.177 8.89844 100.813 8.89844C100.445 8.89844 100.141 8.99609 99.8984 9.19141C99.6589 9.38672 99.4805 9.64583 99.3633 9.96875C99.2487 10.2891 99.1914 10.6406 99.1914 11.0234C99.1914 11.4089 99.2487 11.7617 99.3633 12.082C99.4805 12.4023 99.6589 12.6589 99.8984 12.8516C100.141 13.0443 100.445 13.1406 100.813 13.1406ZM106.077 10.4375V14H104.909V8H106.03V8.97656H106.104C106.243 8.65885 106.459 8.40365 106.753 8.21094C107.05 8.01823 107.424 7.92188 107.874 7.92188C108.283 7.92188 108.641 8.00781 108.948 8.17969C109.256 8.34896 109.494 8.60156 109.663 8.9375C109.832 9.27344 109.917 9.6888 109.917 10.1836V14H108.749V10.3242C108.749 9.88932 108.636 9.54948 108.409 9.30469C108.183 9.05729 107.871 8.93359 107.476 8.93359C107.205 8.93359 106.964 8.99219 106.753 9.10937C106.545 9.22656 106.379 9.39844 106.257 9.625C106.137 9.84896 106.077 10.1198 106.077 10.4375ZM114.488 14V6H115.695V9.82031H115.793L119.148 6H120.668L117.441 9.60156L120.68 14H119.227L116.641 10.4258L115.695 11.5117V14H114.488ZM123.786 14.1211C123.224 14.1211 122.733 13.9922 122.313 13.7344C121.894 13.4766 121.569 13.1159 121.337 12.6523C121.105 12.1888 120.989 11.6471 120.989 11.0273C120.989 10.4049 121.105 9.86068 121.337 9.39453C121.569 8.92839 121.894 8.56641 122.313 8.30859C122.733 8.05078 123.224 7.92188 123.786 7.92188C124.349 7.92188 124.84 8.05078 125.259 8.30859C125.678 8.56641 126.004 8.92839 126.235 9.39453C126.467 9.86068 126.583 10.4049 126.583 11.0273C126.583 11.6471 126.467 12.1888 126.235 12.6523C126.004 13.1159 125.678 13.4766 125.259 13.7344C124.84 13.9922 124.349 14.1211 123.786 14.1211ZM123.79 13.1406C124.155 13.1406 124.457 13.0443 124.696 12.8516C124.936 12.6589 125.113 12.4023 125.228 12.082C125.345 11.7617 125.403 11.4089 125.403 11.0234C125.403 10.6406 125.345 10.2891 125.228 9.96875C125.113 9.64583 124.936 9.38672 124.696 9.19141C124.457 8.99609 124.155 8.89844 123.79 8.89844C123.423 8.89844 123.118 8.99609 122.876 9.19141C122.636 9.38672 122.458 9.64583 122.341 9.96875C122.226 10.2891 122.169 10.6406 122.169 11.0234C122.169 11.4089 122.226 11.7617 122.341 12.082C122.458 12.4023 122.636 12.6589 122.876 12.8516C123.118 13.0443 123.423 13.1406 123.79 13.1406ZM131.422 10.1133V11.125H127.875V10.1133H131.422ZM135.834 8V8.9375H132.443V8H135.834ZM133.373 14V7.30469C133.373 6.92969 133.455 6.61849 133.619 6.37109C133.783 6.12109 134.001 5.9349 134.271 5.8125C134.542 5.6875 134.837 5.625 135.154 5.625C135.389 5.625 135.589 5.64453 135.756 5.68359C135.923 5.72005 136.046 5.75391 136.127 5.78516L135.854 6.73047C135.799 6.71484 135.729 6.69661 135.643 6.67578C135.557 6.65234 135.452 6.64062 135.33 6.64062C135.046 6.64062 134.843 6.71094 134.721 6.85156C134.601 6.99219 134.541 7.19531 134.541 7.46094V14H133.373ZM137.039 14V8H138.207V14H137.039ZM137.629 7.07422C137.426 7.07422 137.251 7.00651 137.105 6.87109C136.962 6.73307 136.891 6.56901 136.891 6.37891C136.891 6.1862 136.962 6.02214 137.105 5.88672C137.251 5.7487 137.426 5.67969 137.629 5.67969C137.832 5.67969 138.005 5.7487 138.148 5.88672C138.294 6.02214 138.367 6.1862 138.367 6.37891C138.367 6.56901 138.294 6.73307 138.148 6.87109C138.005 7.00651 137.832 7.07422 137.629 7.07422Z" fill="white"/>
</g>
<path d="M11.5 16C18.2526 11.0938 17.9988 9.35938 17.9988 8C17.9988 6.64062 16.7802 5 14.7494 5C12.7185 5 11.5 7 11.5 7C11.5 7 10.2815 5 8.25062 5C6.21976 5 5.00124 6.64062 5.00124 8C5.00124 9.35938 4.74738 11.0938 11.5 16Z" fill="#ED6A65"/>
</g>
<defs>
<filter id="filter0_d_2_27" x="32.5625" y="5.625" width="106.805" height="12.625" filterUnits="userSpaceOnUse" color-interpolation-filters="sRGB">
<feFlood flood-opacity="0" result="BackgroundImageFix"/>
<feColorMatrix in="SourceAlpha" type="matrix" values="0 0 0 0 0 0 0 0 0 0 0 0 0 0 0 0 0 0 127 0" result="hardAlpha"/>
<feOffset dy="1"/>
<feGaussianBlur stdDeviation="0.5"/>
<feComposite in2="hardAlpha" operator="out"/>
<feColorMatrix type="matrix" values="0 0 0 0 0 0 0 0 0 0 0 0 0 0 0 0 0 0 0.45 0"/>
<feBlend mode="normal" in2="BackgroundImageFix" result="effect1_dropShadow_2_27"/>
<feBlend mode="normal" in="SourceGraphic" in2="effect1_dropShadow_2_27" result="shape"/>
</filter>
<clipPath id="clip0_2_27">
<rect width="150" height="20" fill="white"/>
</clipPath>
</defs>
</svg>
